HIERARCHY
ROOT SpineBase
{
  OFFSET 0.000000 0.000000 0.000000
  CHANNELS 6 Xposition Yposition Zposition Zrotation Xrotation Yrotation
  JOINT SpineMid
  {
    OFFSET 0.000000 27.622397 -0.000000
    CHANNELS 3 Zrotation Xrotation Yrotation
    JOINT SpineShoulder
    {
      OFFSET -0.068594 20.583370 -0.732556
      CHANNELS 3 Zrotation Xrotation Yrotation
      JOINT Neck
      {
        OFFSET -0.013677 6.836957 -0.545051
        CHANNELS 3 Zrotation Xrotation Yrotation
        JOINT Head
        {
          OFFSET -3.779686 11.753571 1.271703
          CHANNELS 3 Zrotation Xrotation Yrotation
          End Site
          {
            OFFSET 0 0 0
          }
        }
      }
      JOINT ShoulderLeft
      {
        OFFSET -11.790665 -5.097507 4.123318
        CHANNELS 3 Zrotation Xrotation Yrotation
        JOINT ElbowLeft
        {
          OFFSET -0.788503 -23.103257 2.471453
          CHANNELS 3 Zrotation Xrotation Yrotation
          JOINT WristLeft
          {
            OFFSET -0.862263 -21.480837 -3.881161
            CHANNELS 3 Zrotation Xrotation Yrotation
            JOINT HandLeft
            {
              OFFSET 0.570374 -5.596070 -1.746122
              CHANNELS 3 Zrotation Xrotation Yrotation
              JOINT HandTipLeft
              {
                OFFSET 1.127079 -6.589747 0.093131
                CHANNELS 3 Zrotation Xrotation Yrotation
                End Site
                {
                  OFFSET 0 0 0
                }
              }
              JOINT ThumbLeft
              {
                OFFSET -1.633425 -2.287365 -0.787726
                CHANNELS 3 Zrotation Xrotation Yrotation
                End Site
                {
                  OFFSET 0 0 0
                }
              }
            }
          }
        }
      }
      JOINT ShoulderRight
      {
        OFFSET 10.255696 -2.144600 -8.038423
        CHANNELS 3 Zrotation Xrotation Yrotation
        JOINT ElbowRight
        {
          OFFSET 5.554382 -22.709916 -3.496580
          CHANNELS 3 Zrotation Xrotation Yrotation
          JOINT WristRight
          {
            OFFSET -1.200433 -18.185351 -5.562169
            CHANNELS 3 Zrotation Xrotation Yrotation
            JOINT HandRight
            {
              OFFSET -0.966941 -7.426556 -0.958085
              CHANNELS 3 Zrotation Xrotation Yrotation
              JOINT HandTipRight
              {
                OFFSET 0.196931 -5.901573 -1.217881
                CHANNELS 3 Zrotation Xrotation Yrotation
                End Site
                {
                  OFFSET 0 0 0
                }
              }
              JOINT ThumbRight
              {
                OFFSET 2.093563 0.127781 -2.129800
                CHANNELS 3 Zrotation Xrotation Yrotation
                End Site
                {
                  OFFSET 0 0 0
                }
              }
            }
          }
        }
      }
    }
  }
  JOINT HipLeft
  {
    OFFSET -4.927866 0.395631 -0.689624
    CHANNELS 3 Zrotation Xrotation Yrotation
    JOINT KneeLeft
    {
      OFFSET 5.738714 -29.787816 0.514763
      CHANNELS 3 Zrotation Xrotation Yrotation
      JOINT AnkleLeft
      {
        OFFSET 6.520363 -31.710586 5.000288
        CHANNELS 3 Zrotation Xrotation Yrotation
        JOINT FootLeft
        {
          OFFSET -4.695120 -2.532375 -11.097615
          CHANNELS 3 Zrotation Xrotation Yrotation
          End Site
          {
            OFFSET 0 0 0
          }
        }
      }
    }
  }
  JOINT HipRight
  {
    OFFSET 5.002055 1.331329 -5.434109
    CHANNELS 3 Zrotation Xrotation Yrotation
    JOINT KneeRight
    {
      OFFSET 7.588903 -30.413828 -1.074233
      CHANNELS 3 Zrotation Xrotation Yrotation
      JOINT AnkleRight
      {
        OFFSET 5.002979 -29.564540 3.421797
        CHANNELS 3 Zrotation Xrotation Yrotation
        JOINT FootRight
        {
          OFFSET -4.117137 -2.612116 -11.028492
          CHANNELS 3 Zrotation Xrotation Yrotation
          End Site
          {
            OFFSET 0 0 0
          }
        }
      }
    }
  }
}
MOTION
Frames: 9
Frame Time: 0.033333
-4.505376 72.073592 355.264022 -0.000000 -0.000000 25.538327 0.000000 0.000000 -25.538327 -0.000000 0.000000 0.000000 -0.000000 0.000000 0.000000 0.000000 0.000000 0.000000 -0.000000 0.000000 0.000000 -0.000000 0.000000 0.000000 -0.000000 0.000000 0.000000 -0.000000 0.000000 0.000000 0.000000 0.000000 0.000000 0.000000 0.000000 0.000000 -0.000000 0.000000 0.000000 -0.000000 0.000000 0.000000 -0.000000 0.000000 0.000000 -0.000000 0.000000 0.000000 0.000000 0.000000 0.000000 0.000000 0.000000 0.000000 0.000000 0.000000 -25.538327 -0.000000 0.000000 0.000000 -0.000000 0.000000 0.000000 0.000000 0.000000 0.000000 0.000000 0.000000 -25.538327 -0.000000 0.000000 0.000000 -0.000000 0.000000 0.000000 0.000000 0.000000 0.000000
-4.547134 72.062766 355.191560 -0.106227 0.052308 25.457745 0.073428 -0.092890 -25.457637 -0.000000 0.000000 0.000000 -0.000000 0.000000 0.000000 0.000000 0.000000 0.000000 -0.000000 0.000000 0.000000 -0.000000 0.000000 0.000000 1.105692 2.179036 -0.142933 -0.643345 -1.267192 0.277326 0.000000 0.000000 0.000000 0.000000 0.000000 0.000000 -0.000000 0.000000 0.000000 -0.000000 0.000000 0.000000 -0.511442 0.770351 -0.030838 0.351277 -1.715148 0.035965 0.000000 0.000000 0.000000 0.000000 0.000000 0.000000 0.073428 -0.092890 -25.457637 -0.000000 0.000000 0.000000 0.809914 -1.173527 -1.449162 0.000000 0.000000 0.000000 0.073428 -0.092890 -25.457637 -0.000000 0.000000 0.000000 2.036570 -6.340071 2.054414 0.000000 0.000000 0.000000
-4.580579 72.051656 355.118464 -0.194149 0.106431 25.398396 0.129736 -0.179416 -25.398013 -0.000000 0.000000 0.000000 -0.000000 0.000000 0.000000 0.000000 0.000000 0.000000 0.139623 0.830337 -0.014427 -0.139429 -0.830370 0.012405 2.053586 3.897034 -0.309508 -1.352214 -2.090977 0.525501 0.000000 0.000000 0.000000 0.000000 0.000000 0.000000 -0.000000 0.000000 0.000000 -0.000000 0.000000 0.000000 -0.955440 1.411164 -0.048584 0.553548 -3.022369 0.086394 0.000000 0.000000 0.000000 0.000000 0.000000 0.000000 0.129736 -0.179416 -25.398013 -0.000000 0.000000 0.000000 1.624040 -2.377864 -3.028963 0.000000 0.000000 0.000000 0.129736 -0.179416 -25.398013 1.008925 0.887340 0.258969 3.105832 -13.038568 3.954506 0.000000 0.000000 0.000000
-4.605711 72.040262 355.044734 -0.263812 0.162383 25.360315 0.168841 -0.259727 -25.359559 -0.000000 0.000000 0.000000 -0.000000 0.000000 0.000000 0.000000 0.000000 0.000000 0.196929 1.181674 -0.021321 -0.196531 -1.181740 0.017263 2.778721 5.024242 -0.469135 -2.067517 -2.340254 0.740964 0.000000 0.000000 0.000000 0.000000 0.000000 0.000000 -0.000000 0.000000 0.000000 -0.000000 0.000000 0.000000 -1.318627 1.900341 -0.055255 0.592315 -3.918747 0.145795 0.000000 0.000000 0.000000 0.000000 0.000000 0.000000 0.168841 -0.259727 -25.359559 -0.000000 0.000000 0.000000 2.440684 -3.617754 -4.754129 0.000000 0.000000 0.000000 0.168841 -0.259727 -25.359559 1.338788 1.203971 0.344374 4.621102 -17.881174 5.744218 0.000000 0.000000 0.000000
-4.622531 72.028583 354.970369 -0.315249 0.220184 25.343499 0.190664 -0.333931 -25.342338 -0.000000 0.000000 0.000000 0.262704 -0.824534 -0.291701 0.000000 0.000000 0.000000 0.245894 1.490529 -0.027809 -0.245253 -1.490634 0.021420 3.230043 5.475405 -0.593554 -2.746347 -1.927335 0.931689 0.000000 0.000000 0.000000 0.000000 0.000000 0.000000 -0.000000 0.000000 0.000000 -0.156536 0.995818 -0.016453 -1.432839 1.224434 -0.061443 0.453305 -4.398778 0.212314 0.000000 0.000000 0.000000 0.000000 0.000000 0.000000 0.190664 -0.333931 -25.342338 -0.000000 0.000000 0.000000 3.257197 -4.898078 -6.640843 0.000000 0.000000 0.000000 0.190664 -0.333931 -25.342338 1.545823 1.429090 0.401152 5.614694 -20.785968 6.867807 0.000000 0.000000 0.000000
-4.631037 72.016621 354.895370 -0.348480 0.279851 25.347913 0.195128 -0.402094 -25.346377 -0.000000 0.000000 0.000000 0.270653 -0.981494 -0.342656 0.000000 0.000000 0.000000 0.286516 1.756964 -0.033771 -0.285615 -1.757110 0.024998 3.379858 5.221713 -0.665020 -3.368950 -0.821128 1.114521 0.000000 0.000000 0.000000 0.000000 0.000000 0.000000 -0.000000 0.000000 0.000000 -0.226417 1.196878 -0.007369 -1.533419 1.162978 -0.068325 0.123715 -4.456314 0.288344 0.000000 0.000000 0.000000 0.000000 0.000000 0.000000 0.195128 -0.402094 -25.346377 -0.000000 0.000000 0.000000 4.069691 -6.223635 -8.706694 0.000000 0.000000 0.000000 0.195128 -0.402094 -25.346377 1.627762 1.559825 0.429865 5.782210 -21.452435 7.001339 0.000000 0.000000 0.000000
-4.626804 72.003260 354.813410 -0.360959 0.349638 25.380174 0.176265 -0.470603 -25.378349 -0.000000 0.000000 0.000000 0.336950 -0.998964 -0.354770 0.000000 0.000000 0.000000 0.310513 2.020466 -0.041305 -0.065610 -0.933981 -0.050939 2.479449 1.863203 -0.478055 -3.159028 1.866160 1.293886 0.000000 0.000000 0.000000 0.000000 0.000000 0.000000 -0.000000 0.000000 0.000000 -0.337333 1.446676 0.011886 -1.208500 1.020609 -0.130353 -1.077646 -4.106698 0.493403 0.000000 0.000000 0.000000 0.000000 0.000000 0.000000 0.176265 -0.470603 -25.378349 -0.000000 0.000000 0.000000 5.786786 -9.395573 -13.569536 0.000000 0.000000 0.000000 0.176265 -0.470603 -25.378349 1.261392 1.212519 0.337628 4.886538 -18.244715 5.503440 0.000000 0.000000 0.000000
-4.619642 71.987843 354.727636 -0.363061 0.429732 25.456886 0.143108 -0.544060 -25.454845 -0.000000 0.000000 0.000000 0.319984 -1.153223 -0.402340 0.000000 0.000000 0.000000 0.319066 2.237074 -0.048564 -0.077619 -1.055764 -0.047693 2.483582 0.753195 -0.550456 -5.212438 1.947573 1.243223 0.000000 0.000000 0.000000 0.000000 0.000000 0.000000 -0.829101 -0.057689 0.113339 0.346881 1.670574 -0.065130 -0.723791 0.670027 -0.185543 -2.793075 -3.489996 0.752314 0.000000 0.000000 0.000000 0.000000 0.000000 0.000000 0.143108 -0.544060 -25.454845 -0.000000 0.000000 0.000000 5.715889 -8.639121 -14.818404 0.000000 0.000000 0.000000 0.143108 -0.544060 -25.454845 0.985534 1.215750 0.309280 3.016851 -12.876893 3.041614 0.000000 0.000000 0.000000
-4.600466 71.969563 354.653382 -0.328619 0.491658 25.562549 0.084312 -0.585327 -25.560709 -0.000000 0.000000 0.000000 0.151704 -1.231181 -0.411021 0.000000 0.000000 0.000000 0.344239 2.376875 -0.051569 -0.148479 -1.415442 -0.029893 2.451022 0.924988 -0.556528 -4.994951 3.436227 1.507552 0.000000 0.000000 0.000000 0.000000 0.000000 0.000000 -1.010307 -0.048458 0.143598 0.439207 1.832773 -0.077184 -0.560397 -0.281908 -0.118422 -3.011673 -1.977779 0.779929 0.000000 0.000000 0.000000 0.000000 0.000000 0.000000 0.084312 -0.585327 -25.560709 -0.000000 0.000000 0.000000 7.334130 -12.942776 -18.713440 0.000000 0.000000 0.000000 0.084312 -0.585327 -25.560709 1.064061 1.113819 0.301169 0.565301 -5.795766 0.258710 0.000000 0.000000 0.000000
